<svg width="42" height="42" viewBox="0 0 42 42" fill="none" xmlns="http://www.w3.org/2000/svg">
<ellipse cx="21" cy="21.1096" rx="19.6144" ry="16.9698" fill="#651391"/>
<path fill-rule="evenodd" clip-rule="evenodd" d="M40.5109 22.8632C40.5794 22.2867 40.6144 21.7017 40.6144 21.1095C40.6144 16.2019 38.2065 11.7808 34.3569 8.6824C34.3401 8.80732 34.3356 8.93752 34.3446 9.0732C34.4983 11.3791 32.1319 12.7986 30.8884 13.3315C30.8597 13.3438 30.8311 13.3493 30.7999 13.3486C25.5291 13.2278 13.8027 14.5711 8.6858 20.1531C8.43351 20.4284 8.20407 20.694 7.99611 20.9503C7.9022 21.066 7.72261 21.0608 7.64357 20.9344C7.35887 20.4792 7.14779 20.0151 7.03062 19.5464C6.91195 19.0718 6.90468 18.6779 6.98383 18.3433C7.06282 18.0094 7.22931 17.7284 7.46794 17.481C7.70332 17.237 8.00769 17.0267 8.36541 16.8329C8.56926 16.7401 8.75931 16.647 8.9363 16.5539C9.1596 16.4541 9.39663 16.3566 9.6448 16.2587C9.86533 16.1716 10.0941 16.0844 10.329 15.9948C12.0492 15.339 14.0922 14.5601 15.5633 12.8295C15.9435 12.3822 16.174 11.681 16.2948 10.9804C16.4083 10.3216 16.4273 9.64812 16.3747 9.15685C16.369 9.10348 16.32 9.06611 16.2668 9.0732C16.2136 9.0803 16.1763 9.12912 16.182 9.1825C16.2317 9.65269 16.2138 10.3056 16.1032 10.9474C15.9843 11.6369 15.7613 12.2964 15.4152 12.7036C13.9788 14.3934 11.9859 15.1541 10.2626 15.8119C10.2081 15.8327 10.1624 15.7524 10.2065 15.7142C10.2574 15.6702 10.3057 15.6263 10.3516 15.5826C10.7922 15.1636 11.0132 14.7596 11.0817 14.3974C11.1426 14.0755 11.0819 13.7924 10.9557 13.571C10.9291 13.5243 10.8682 13.5135 10.824 13.5441C10.7799 13.5746 10.7694 13.6349 10.7951 13.6821C10.8933 13.8621 10.9414 14.0931 10.8907 14.3612C10.8317 14.6733 10.6372 15.0428 10.2176 15.4418C9.90041 15.7435 9.45696 16.0597 8.85281 16.3782C8.65156 16.4682 8.45943 16.561 8.27887 16.6587C7.32579 17.0919 6.05729 17.5226 4.38683 17.9204C4.37782 17.9225 4.36916 17.9259 4.36112 17.9305C4.00147 18.136 3.71871 18.4632 3.62373 18.8955C3.52878 19.3277 3.6249 19.8492 3.99152 20.4378C4.42075 21.1269 5.22658 21.9179 6.56058 22.7848C6.65403 22.8455 6.68662 22.9704 6.64204 23.0725C4.76139 27.3812 10.7236 27.9285 11.2128 27.9285C11.4597 27.9285 13.161 27.8414 15.471 27.6673C15.5337 27.6625 15.5962 27.6845 15.6403 27.7294C15.9403 28.0339 16.2317 28.4235 16.5291 28.863C16.724 29.1511 16.9215 29.461 17.1249 29.78C17.6587 30.6174 18.234 31.5199 18.9163 32.2704C19.4157 32.8197 19.9329 33.0865 20.4874 33.1816C21.0375 33.2759 21.6173 33.1997 22.2385 33.0779C22.4312 33.0401 22.6283 32.9979 22.8306 32.9546C23.9163 32.722 25.1521 32.4573 26.6521 32.6752C26.7052 32.6829 26.7552 32.6468 26.7636 32.5938C26.772 32.5407 26.7355 32.4909 26.6824 32.4832C25.1436 32.2593 23.8706 32.5324 22.784 32.7656L22.784 32.7656C22.5835 32.8086 22.3894 32.8502 22.2011 32.8872C21.5832 33.0083 21.0331 33.0779 20.5202 32.99C20.0117 32.9028 19.5326 32.6594 19.0601 32.1396C18.3899 31.4023 17.8288 30.5222 17.298 29.6895C17.0924 29.3669 16.8913 29.0514 16.6901 28.7541C16.5051 28.4807 16.3199 28.2226 16.1312 27.9901C16.0141 27.8457 16.1032 27.6187 16.2885 27.6039C16.4345 27.5923 16.5823 27.5804 16.7317 27.5681C16.7644 27.5654 16.7973 27.5701 16.828 27.5817C17.3123 27.7653 17.7661 27.933 18.1986 28.0928C20.4686 28.9318 22.1512 29.5535 24.5725 31.1203L24.5771 31.1232L24.5819 31.1256C24.6523 31.1608 24.7311 31.2014 24.8174 31.2459C25.2816 31.4851 25.9658 31.8377 26.7596 32.0793C27.6758 32.3581 28.7489 32.493 29.8152 32.1341C29.866 32.117 29.8921 32.0611 29.8737 32.0106C29.8554 31.9602 29.7996 31.9343 29.7487 31.9513C28.7364 32.2907 27.7095 32.1652 26.8162 31.8933C26.0409 31.6574 25.3745 31.3141 24.9096 31.0747L24.9087 31.0742C24.8233 31.0302 24.7448 30.9898 24.6736 30.9542C22.2354 29.3771 20.5295 28.7467 18.2534 27.9056L18.1492 27.8671C17.9288 27.7857 17.9724 27.4625 18.2064 27.4414C23.4248 26.9716 29.8113 26.1621 30.8457 25.0128C31.9083 23.8321 31.9923 22.2032 31.8294 21.062C31.7965 20.8317 32.0597 20.7016 32.1627 20.9102C32.6313 21.8594 32.5639 22.9595 32.4258 23.5524C32.411 23.6162 32.4233 23.6845 32.4615 23.7377C34.5559 26.6545 37.0379 26.2676 38.1272 25.658C38.1935 25.6209 38.2323 25.5497 38.2323 25.4738V24.7272C38.2323 24.6618 38.2613 24.5998 38.3116 24.5579L39.052 23.9409C39.193 23.8234 39.137 23.5952 38.9577 23.5562L37.2971 23.1952C37.0349 23.1382 37.083 22.7508 37.3512 22.7596L40.5109 22.8632ZM7.59428 21.2159C7.64741 21.2953 7.64577 21.3996 7.5893 21.4766C7.32437 21.838 7.10466 22.1794 6.92567 22.5019C6.86271 22.6154 6.71687 22.655 6.60837 22.5838C5.32653 21.7432 4.56094 20.9843 4.15652 20.335C3.80878 19.7767 3.73238 19.3069 3.81359 18.9372C3.89138 18.5832 4.11686 18.3066 4.41767 18.1229C4.43611 18.1116 4.45644 18.1036 4.47746 18.0986C5.57473 17.8358 6.50195 17.558 7.28244 17.2731C7.32319 17.2583 7.35816 17.3148 7.32804 17.346C7.06856 17.615 6.88273 17.9263 6.79467 18.2985C6.70677 18.6701 6.71772 19.0963 6.84204 19.5936C6.9802 20.1462 7.24167 20.689 7.59428 21.2159ZM11.6275 25.5517C11.659 25.554 11.6894 25.5637 11.7169 25.5793L12.6787 26.1289C12.7223 26.1539 12.7573 26.1927 12.7705 26.2412C12.8826 26.6548 12.6003 27.099 12.1847 27.099C10.6944 27.2286 7.55836 26.9046 6.93633 24.572C6.87289 24.0644 6.85914 23.1345 7.29654 23.3879C7.31546 23.3988 7.33159 23.4137 7.34558 23.4305C7.94575 24.1509 9.56249 25.5439 11.4072 25.5439C11.4843 25.5439 11.5577 25.5466 11.6275 25.5517ZM16.2668 25.2071C16.6962 25.2071 17.0443 24.859 17.0443 24.4296C17.0443 24.0002 16.6962 23.6521 16.2668 23.6521C15.8374 23.6521 15.4893 24.0002 15.4893 24.4296C15.4893 24.859 15.8374 25.2071 16.2668 25.2071Z" fill="white"/>
</svg>
